<?xml version="1.0" standalone="no"?>
<!DOCTYPE svg PUBLIC "-//W3C//DTD SVG 20010904//EN"
 "http://www.w3.org/TR/2001/REC-SVG-20010904/DTD/svg10.dtd">
<svg version="1.0" xmlns="http://www.w3.org/2000/svg"
 width="2000.000000pt" height="2000.000000pt" viewBox="0 0 2000.000000 2000.000000"
 preserveAspectRatio="xMidYMid meet">

<g transform="translate(0.000000,2000.000000) scale(0.100000,-0.100000)"
fill="#000000" stroke="none">
<path d="M10918 19672 c-88 -103 -165 -212 -373 -527 -227 -344 -305 -467
-378 -601 -78 -143 -131 -227 -141 -227 -5 1 -47 68 -94 149 -161 286 -318
541 -494 804 -205 308 -285 411 -336 437 -81 40 -428 26 -937 -38 -546 -68
-1165 -176 -1198 -208 -12 -12 35 -63 147 -159 138 -119 350 -327 541 -531
l160 -171 90 5 c50 3 198 12 329 21 196 12 241 13 251 2 7 -7 62 -72 123 -144
499 -593 977 -1402 1306 -2211 36 -90 79 -188 94 -220 l29 -57 26 45 c14 24
41 88 61 141 164 443 527 1121 905 1690 215 325 332 479 518 683 l82 91 308
-23 308 -23 376 378 c354 355 439 447 439 478 0 47 -592 147 -1265 214 -308
30 -763 70 -793 69 -21 0 -41 -16 -84 -67z"/>
<path d="M5880 19110 c-544 -166 -999 -338 -1324 -502 -272 -138 -558 -312
-621 -377 -25 -27 -27 -33 -15 -45 20 -18 538 -290 1260 -661 190 -97 449
-231 575 -298 215 -112 303 -159 815 -435 727 -390 1029 -549 1737 -911 541
-276 682 -345 690 -337 16 16 -80 285 -204 576 -270 632 -646 1240 -1085 1752
-495 577 -1044 1048 -1447 1242 -126 60 -171 60 -381 -4z"/>
<path d="M13775 19098 c-592 -355 -1107 -806 -1551 -1358 -198 -247 -403 -544
-544 -790 -93 -162 -389 -756 -464 -930 -59 -137 -179 -468 -174 -479 3 -7
101 43 653 331 309 161 564 293 1340 693 869 448 1102 569 1330 688 127 66
347 180 490 255 640 332 1169 615 1266 675 11 7 19 19 19 28 0 43 -237 196
-542 350 -340 171 -697 320 -1061 441 -326 108 -449 139 -572 145 l-100 5 -90
-54z"/>
<path d="M3352 17559 c-106 -10 -271 -51 -387 -96 -422 -161 -736 -506 -889
-975 -76 -233 -81 -258 -80 -438 1 -204 25 -335 82 -454 l38 -80 -116 -181
c-139 -215 -185 -295 -278 -482 -181 -361 -326 -770 -377 -1067 -20 -117 -20
-215 0 -222 21 -9 139 62 525 316 521 343 783 501 1230 745 270 147 404 226
455 269 l39 33 -42 64 c-23 35 -100 147 -171 249 -195 277 -289 445 -347 620
-26 75 -29 99 -29 211 0 125 0 125 38 202 21 42 59 98 85 125 166 171 400 180
800 31 283 -105 791 -375 1057 -562 90 -63 275 -230 275 -247 0 -11 -264 -355
-369 -480 -185 -221 -510 -530 -725 -690 -149 -110 -386 -248 -1011 -590 -584
-319 -755 -419 -995 -581 -300 -202 -540 -397 -756 -614 -202 -202 -281 -319
-349 -515 -81 -235 -105 -407 -104 -738 1 -130 4 -249 8 -263 6 -26 16 -19
321 218 1222 949 1717 1302 2496 1779 227 139 357 214 371 214 17 0 17 -30 -7
-385 -22 -324 -43 -518 -65 -605 -18 -69 -53 -102 -224 -208 -69 -44 -211
-132 -315 -196 -306 -191 -973 -631 -1286 -849 -63 -44 -167 -117 -230 -161
-151 -105 -479 -352 -605 -456 -132 -107 -286 -260 -341 -336 -64 -89 -112
-199 -135 -305 -16 -77 -19 -135 -19 -316 -1 -248 9 -372 46 -613 179 -1165
623 -2314 1230 -3180 158 -226 237 -366 305 -540 139 -358 353 -694 723 -1134
312 -372 692 -751 1171 -1167 197 -171 426 -349 449 -349 17 0 -6 150 -59 400
-37 171 -45 296 -56 820 -11 573 -2 955 27 1120 96 555 464 1317 932 1930 162
212 461 555 473 543 4 -5 34 -78 67 -163 74 -192 150 -364 253 -572 43 -88 76
-165 72 -171 -3 -7 -63 -102 -133 -212 -147 -233 -168 -269 -289 -513 -104
-208 -218 -469 -284 -652 -239 -663 -399 -1854 -306 -2285 59 -277 199 -553
385 -761 293 -327 955 -750 1594 -1019 438 -184 1340 -422 1340 -353 0 66
-222 246 -705 570 -476 320 -675 470 -852 646 -212 211 -322 396 -451 758 -84
234 -87 256 -87 659 0 368 7 476 50 731 78 463 263 947 497 1301 95 143 230
293 264 293 26 0 88 -34 155 -86 l56 -43 6 -403 c6 -394 19 -642 37 -724 15
-67 39 -379 55 -724 22 -467 38 -591 92 -744 89 -251 463 -922 765 -1373 311
-464 571 -783 862 -1055 253 -237 375 -328 442 -328 68 0 347 259 673 624 427
480 836 1118 1189 1851 195 407 209 465 222 932 10 365 21 516 51 728 37 259
50 438 58 800 7 306 11 366 26 403 18 44 63 86 131 120 40 21 41 21 72 2 99
-60 346 -462 478 -776 132 -316 258 -794 311 -1184 23 -173 23 -524 0 -675
-48 -303 -158 -603 -304 -823 -104 -157 -308 -348 -583 -548 -69 -50 -269
-189 -445 -311 -475 -327 -626 -438 -735 -542 -60 -56 -73 -84 -46 -94 20 -8
216 19 357 49 751 158 1380 415 1959 799 466 309 801 664 929 986 158 396 139
1141 -49 1950 -149 640 -419 1290 -750 1804 -43 66 -89 144 -104 173 l-26 52
31 76 c78 187 323 656 387 742 13 17 30 32 37 32 34 0 464 -576 687 -920 374
-577 620 -1159 693 -1643 28 -187 40 -648 27 -1045 -17 -492 -34 -686 -92
-992 -16 -85 -27 -156 -25 -158 8 -8 256 168 398 281 772 616 1612 1572 1862
2121 19 42 58 134 86 204 91 224 192 411 369 688 242 375 408 676 546 983 334
750 580 1678 635 2401 16 205 6 504 -19 625 -60 280 -193 433 -717 826 -448
337 -948 679 -1555 1065 -202 128 -678 446 -766 512 l-82 60 -6 59 c-17 158
-27 346 -33 631 -5 271 -4 312 9 312 34 0 561 -320 1083 -658 55 -35 118 -76
140 -90 133 -83 707 -503 1070 -781 181 -139 547 -433 740 -595 50 -42 94 -76
98 -76 5 0 7 161 4 358 -5 380 -11 436 -67 617 -164 526 -763 1022 -2070 1712
-700 370 -867 470 -1090 648 -252 201 -536 506 -866 930 -133 170 -157 209
-149 234 10 33 182 176 370 308 324 227 793 455 1100 536 138 37 205 47 301
47 171 0 321 -88 411 -240 65 -111 76 -262 28 -410 -68 -212 -221 -467 -484
-805 -55 -71 -101 -135 -101 -141 0 -23 143 -114 450 -283 377 -208 473 -264
723 -413 273 -164 408 -249 687 -433 242 -160 368 -231 382 -217 31 31 -60
518 -149 797 -111 345 -208 535 -512 1001 l-91 141 35 90 c46 120 65 237 65
397 0 300 -51 492 -203 763 -80 143 -163 251 -281 369 -135 134 -216 193 -371
269 -301 148 -598 180 -970 104 -135 -28 -258 -69 -441 -145 -296 -123 -559
-264 -841 -451 -268 -177 -417 -296 -717 -572 -87 -80 -192 -172 -235 -204
-92 -70 -301 -174 -661 -330 -1228 -532 -1944 -949 -3089 -1800 l-224 -166
-81 63 c-701 547 -1462 1042 -2156 1404 -197 103 -703 336 -1155 532 -177 77
-402 190 -475 240 -80 53 -128 94 -304 254 -273 249 -465 401 -741 581 -209
137 -285 181 -540 310 -527 267 -884 366 -1203 334z m2917 -2388 c695 -290
1432 -668 2051 -1054 399 -249 643 -417 1135 -781 313 -232 459 -333 533 -370
l53 -27 32 22 c18 13 137 102 265 198 1013 764 1641 1166 2462 1577 461 231
1088 504 1156 504 64 0 324 -290 512 -571 266 -399 481 -975 582 -1564 57
-332 86 -802 59 -965 -12 -77 -77 -246 -149 -390 -103 -205 -268 -420 -536
-700 -369 -384 -658 -702 -719 -790 -21 -30 -36 -92 -85 -336 -77 -391 -117
-530 -300 -1030 -72 -197 -96 -314 -104 -509 -16 -372 -83 -741 -196 -1070
-56 -165 -175 -401 -253 -505 -129 -172 -323 -356 -496 -469 -155 -100 -396
-184 -571 -197 -215 -16 -494 66 -709 210 -108 72 -286 235 -358 329 -74 95
-76 107 -81 490 -6 517 14 763 73 863 61 103 144 145 520 258 431 131 604 194
788 288 223 114 306 223 337 443 6 39 14 474 19 975 13 1257 29 1521 112 1787
l32 102 116 26 c190 43 377 93 511 137 401 130 937 531 1299 973 l90 110 -477
3 c-545 3 -918 -9 -1110 -38 -212 -31 -427 -112 -592 -223 -148 -100 -377
-307 -498 -451 -93 -110 -121 -153 -191 -292 l-59 -119 -17 -1395 c-9 -767
-17 -1395 -18 -1396 -5 -5 -407 -86 -512 -103 -542 -89 -1240 -92 -1820 -10
-142 20 -542 103 -554 114 -3 4 -13 619 -22 1368 l-15 1362 -62 120 c-78 152
-163 264 -327 434 -332 342 -625 525 -924 576 -142 25 -303 35 -801 50 -548
17 -840 19 -840 6 0 -25 194 -256 348 -415 219 -225 525 -439 837 -586 217
-103 357 -149 602 -201 220 -45 257 -68 288 -173 49 -164 54 -311 84 -2219
l10 -577 63 -106 c74 -126 163 -226 227 -258 60 -30 345 -140 575 -221 689
-242 722 -259 759 -391 42 -153 73 -576 64 -904 -6 -256 -16 -317 -63 -387
-126 -192 -477 -418 -809 -519 -81 -25 -105 -28 -235 -28 -129 0 -155 3 -234
28 -115 35 -295 128 -415 214 -239 170 -487 455 -608 697 -130 258 -190 521
-244 1050 -35 345 -57 455 -129 650 -106 286 -133 364 -185 546 -61 213 -124
485 -155 672 -26 154 -39 199 -72 252 -42 66 -202 247 -429 484 -661 694 -774
843 -883 1173 -82 248 -94 521 -41 925 76 578 282 1231 512 1621 230 392 531
772 611 772 8 0 89 -31 181 -69z m-1858 -4073 c157 -225 644 -848 815 -1043
206 -234 364 -445 427 -570 70 -139 84 -282 47 -464 -66 -323 -177 -528 -837
-1541 -77 -118 -204 -314 -283 -435 -355 -545 -466 -740 -563 -986 -150 -379
-237 -831 -278 -1434 -6 -99 -15 -186 -19 -193 -9 -18 -89 54 -173 156 -271
327 -560 909 -673 1357 -35 138 -43 328 -20 445 36 175 164 445 331 695 209
313 377 487 790 817 179 143 281 232 478 416 283 264 478 490 493 569 9 49
-13 108 -151 393 -299 620 -409 1026 -431 1596 -7 177 -2 254 16 254 5 0 19
-15 31 -32z m11273 -19 c10 -49 7 -306 -4 -420 -50 -496 -224 -1003 -507
-1474 -111 -186 -143 -245 -143 -267 0 -41 223 -333 396 -519 167 -178 332
-328 669 -609 116 -96 271 -235 345 -310 442 -443 740 -983 740 -1340 0 -363
-269 -998 -642 -1516 -96 -134 -191 -239 -207 -230 -6 4 -15 24 -20 44 -10 36
-14 79 -47 452 -57 665 -207 1063 -707 1885 -77 127 -217 347 -310 490 -387
591 -451 696 -615 1002 -140 259 -250 511 -294 674 -19 71 -23 107 -22 229 1
158 17 241 70 354 28 61 153 224 309 401 207 235 444 526 665 815 207 270 289
370 306 370 6 0 14 -14 18 -31z m1069 -406 c568 -396 978 -703 1087 -813 48
-48 103 -117 127 -157 214 -363 250 -881 102 -1467 -53 -211 -219 -681 -267
-754 l-15 -23 -24 23 c-14 13 -50 57 -81 98 -214 287 -604 676 -1047 1045 -77
64 -189 157 -248 207 -188 157 -195 184 -100 398 190 426 310 870 343 1260 16
196 22 240 32 240 6 0 47 -26 91 -57z m-13364 -27 c7 -8 19 -70 27 -138 56
-463 148 -825 319 -1248 48 -117 83 -216 78 -220 -4 -4 -130 -104 -279 -223
-583 -464 -977 -846 -1164 -1127 -130 -197 -148 -186 -276 163 -95 260 -141
440 -181 712 -22 150 -25 558 -5 680 43 258 117 445 227 564 80 87 380 318
830 639 321 230 377 255 424 198z m6662 -4578 c24 -17 89 -68 143 -112 409
-330 791 -493 1314 -562 137 -18 166 -31 184 -81 31 -88 7 -517 -43 -766 -26
-128 -43 -179 -85 -249 -77 -127 -210 -210 -437 -272 -199 -55 -457 -86 -882
-106 -529 -25 -872 -4 -1245 76 -243 52 -363 105 -461 203 -130 130 -175 284
-214 721 -8 96 -15 230 -15 298 l0 123 33 14 c18 7 118 27 222 45 336 55 485
100 730 223 229 114 512 300 629 412 37 36 71 65 75 65 5 0 28 -14 52 -32z
m-661 -2902 c382 -40 845 -45 1185 -12 303 30 319 30 312 12 -9 -24 -292 -490
-537 -886 -118 -190 -234 -378 -258 -417 -24 -40 -50 -73 -58 -73 -34 0 -164
200 -657 1010 -115 190 -217 356 -226 369 l-15 24 59 -6 c33 -4 121 -13 195
-21z"/>
</g>
</svg>
