<?xml version="1.0" standalone="no"?>
<!DOCTYPE svg PUBLIC "-//W3C//DTD SVG 20010904//EN"
 "http://www.w3.org/TR/2001/REC-SVG-20010904/DTD/svg10.dtd">
<svg version="1.0" xmlns="http://www.w3.org/2000/svg"
 width="1080.000000pt" height="1080.000000pt" viewBox="0 0 1080.000000 1080.000000"
 preserveAspectRatio="xMidYMid meet">

<g transform="translate(0.000000,1080.000000) scale(0.100000,-0.100000)"
fill="#EF4444" stroke="none">
<path d="M4955 8483 c-179 -15 -499 -66 -517 -82 -4 -4 18 -27 49 -51 30 -25
93 -85 138 -133 l83 -88 104 6 103 7 47 -55 c150 -174 323 -469 412 -704 15
-40 31 -73 34 -73 4 0 18 28 31 63 84 220 298 580 431 726 l40 44 98 -7 97 -7
136 135 c103 102 132 136 120 141 -50 20 -227 47 -427 66 l-228 21 -29 -33
c-39 -46 -185 -268 -231 -351 -21 -38 -39 -68 -41 -68 -2 0 -29 46 -60 103
-60 106 -178 285 -215 325 -21 23 -54 25 -175 15z"/>
<path d="M3985 8256 c-88 -29 -208 -76 -266 -103 -126 -60 -255 -141 -243
-153 5 -4 167 -89 359 -188 193 -98 427 -222 520 -274 126 -71 657 -345 728
-376 4 -2 -5 29 -19 70 -120 332 -320 631 -584 872 -127 116 -264 206 -315
205 -11 0 -92 -24 -180 -53z"/>
<path d="M6615 8303 c-11 -3 -73 -42 -138 -86 -195 -131 -383 -333 -524 -560
-69 -113 -174 -327 -207 -424 l-25 -73 222 115 c1152 595 1392 721 1392 730 0
35 -284 179 -484 245 -151 50 -202 61 -236 53z"/>
<path d="M3254 7796 c-179 -41 -303 -159 -360 -343 -22 -68 -26 -97 -22 -156
3 -40 12 -87 22 -105 l17 -34 -50 -76 c-97 -150 -178 -352 -197 -492 -5 -38
-3 -50 7 -50 7 0 72 40 143 88 144 98 294 188 459 276 62 33 106 63 104 70 -3
6 -30 47 -62 91 -120 167 -151 268 -105 343 46 75 120 89 246 47 132 -44 358
-171 418 -234 l29 -30 -72 -95 c-85 -112 -213 -235 -308 -298 -38 -25 -158
-93 -267 -152 -109 -59 -228 -126 -264 -148 -171 -107 -325 -239 -382 -328
-45 -71 -71 -187 -68 -304 l3 -97 240 186 c132 102 305 230 385 284 150 101
380 245 385 239 1 -2 -3 -73 -9 -159 -7 -104 -16 -162 -25 -173 -7 -9 -52 -39
-100 -68 -140 -83 -476 -308 -610 -407 -230 -171 -269 -221 -278 -350 -3 -43
0 -123 6 -178 48 -388 200 -790 406 -1078 36 -49 72 -112 81 -140 46 -140 169
-315 363 -517 122 -128 376 -347 387 -335 2 2 -6 50 -18 108 -19 90 -22 137
-23 354 0 232 2 257 24 340 56 215 199 466 378 664 l49 54 28 -74 c16 -41 44
-103 62 -139 19 -35 34 -67 34 -71 0 -3 -21 -37 -46 -75 -69 -102 -158 -293
-198 -424 -63 -212 -101 -528 -77 -655 14 -75 57 -167 106 -225 106 -127 355
-282 593 -369 117 -44 352 -101 352 -86 0 25 -61 76 -229 188 -277 184 -343
256 -407 442 -26 72 -28 93 -28 215 0 201 39 371 125 545 42 84 111 175 133
175 8 0 25 -9 40 -21 l26 -20 0 -152 c1 -84 6 -172 11 -197 6 -25 14 -128 18
-230 9 -209 10 -216 107 -398 120 -228 290 -468 417 -589 107 -101 142 -126
168 -118 35 11 208 190 290 300 98 132 177 259 261 423 90 176 98 207 98 366
0 77 7 170 17 226 9 54 17 154 17 233 1 135 2 139 26 157 14 11 30 19 35 19
20 0 88 -97 135 -194 51 -105 89 -230 115 -379 30 -176 13 -323 -55 -462 -53
-108 -115 -165 -361 -331 -183 -124 -260 -186 -247 -199 12 -11 207 29 322 67
361 121 647 333 715 531 54 157 24 479 -70 762 -49 146 -120 297 -182 390 -26
38 -47 74 -47 80 0 24 130 277 140 271 18 -11 137 -170 205 -273 125 -191 198
-357 227 -517 21 -112 16 -475 -8 -607 l-20 -108 26 17 c135 86 347 283 493
457 128 154 181 236 226 355 24 62 66 140 120 221 45 69 109 179 141 245 134
274 230 651 230 900 -1 162 -29 213 -183 333 -148 115 -302 221 -567 391 -129
83 -237 157 -241 164 -8 16 -22 317 -14 317 11 0 258 -152 378 -232 138 -92
394 -284 522 -392 l90 -75 3 102 c5 168 -26 266 -119 370 -102 115 -287 240
-579 392 -241 126 -300 165 -403 264 -63 61 -213 241 -240 288 -5 7 29 38 87
81 183 135 420 229 509 202 85 -25 129 -107 103 -193 -18 -62 -67 -147 -129
-227 -27 -36 -54 -70 -59 -76 -6 -8 55 -46 189 -118 109 -59 269 -155 356
-213 86 -59 160 -103 164 -100 11 12 -17 165 -47 258 -35 107 -66 170 -136
275 l-54 82 17 43 c24 65 21 179 -6 261 -12 36 -45 98 -72 138 -136 193 -348
249 -589 156 -186 -72 -365 -186 -513 -326 -104 -98 -99 -95 -309 -186 -355
-154 -598 -294 -909 -524 l-120 -89 -102 78 c-194 148 -436 300 -636 401 -46
23 -173 81 -282 130 -195 86 -199 89 -291 174 -124 116 -248 203 -389 275
-202 104 -325 134 -445 107z m1035 -777 c361 -160 635 -321 953 -562 101 -76
162 -116 170 -111 7 4 77 56 154 115 262 198 500 347 749 468 135 66 311 141
330 141 21 0 123 -118 176 -205 104 -169 177 -420 186 -645 5 -117 4 -129 -20
-188 -46 -115 -90 -174 -259 -347 -92 -95 -169 -183 -172 -196 -4 -13 -15 -70
-25 -126 -18 -91 -38 -158 -102 -328 -10 -27 -18 -72 -19 -98 -1 -173 -48
-370 -117 -486 -47 -79 -144 -170 -217 -205 -117 -55 -206 -56 -324 -1 -61 28
-154 113 -172 155 -8 20 -11 83 -8 202 4 229 3 226 201 283 135 39 245 84 282
116 64 57 65 62 65 421 1 332 9 484 32 553 l13 39 91 21 c50 12 115 32 145 44
123 53 276 174 369 291 l32 40 -229 0 c-259 0 -328 -10 -426 -62 -85 -45 -209
-165 -244 -237 l-28 -56 -5 -440 -5 -440 -110 -23 c-207 -44 -523 -41 -725 6
l-75 17 -5 430 -5 430 -27 55 c-34 68 -160 195 -243 245 -102 61 -134 67 -410
74 -137 4 -252 5 -254 4 -8 -5 110 -141 157 -180 123 -104 279 -182 401 -202
35 -6 69 -15 77 -22 33 -27 38 -83 43 -499 l6 -415 27 -46 c15 -25 40 -55 55
-65 15 -10 113 -48 218 -84 168 -58 191 -68 206 -95 27 -45 39 -367 16 -411
-36 -70 -174 -158 -291 -184 -96 -21 -222 33 -331 144 -120 121 -167 242 -187
476 -10 122 -15 146 -55 247 -41 105 -82 264 -98 376 -6 45 -15 57 -161 211
-217 230 -242 264 -278 385 -44 150 15 493 124 718 62 126 192 303 224 303 5
0 61 -23 125 -51z m-562 -1379 c39 -52 117 -149 173 -214 147 -173 166 -219
136 -337 -25 -97 -71 -178 -266 -474 -98 -148 -194 -299 -213 -335 -76 -141
-116 -298 -133 -528 l-7 -93 -24 23 c-76 70 -183 263 -228 411 -40 128 -34
194 30 316 76 142 153 232 291 338 117 89 285 253 313 306 14 25 11 34 -47
149 -89 178 -133 352 -131 523 0 59 0 60 17 35 9 -13 49 -67 89 -120z m3463
71 c0 -188 -63 -391 -176 -569 -19 -29 -34 -58 -34 -65 0 -6 32 -52 71 -100
68 -84 144 -156 293 -277 170 -138 303 -340 314 -476 6 -80 -28 -197 -99 -334
-47 -92 -143 -230 -165 -237 -7 -2 -13 35 -17 106 -17 286 -73 417 -386 891
-120 181 -215 369 -230 453 -11 63 -3 125 24 177 8 15 60 79 115 141 55 63
139 167 187 231 49 64 91 117 96 118 4 0 7 -27 7 -59z m-3866 -163 c9 -91 47
-239 89 -343 l35 -86 -127 -101 c-153 -123 -275 -243 -326 -321 -46 -70 -48
-69 -94 58 -86 237 -78 501 18 605 20 22 115 96 211 164 195 139 182 138 194
24z m4332 -10 c86 -62 176 -130 200 -151 108 -95 141 -299 85 -518 -24 -94
-81 -249 -90 -249 -4 0 -24 24 -44 53 -47 67 -183 202 -317 313 -159 131 -147
105 -100 213 51 118 88 259 97 367 3 46 8 84 9 84 2 0 74 -51 160 -112z
m-2203 -1391 c136 -111 253 -161 428 -182 45 -6 47 -7 51 -43 8 -65 -11 -232
-31 -277 -28 -64 -74 -93 -183 -117 -119 -25 -409 -36 -530 -19 -264 38 -299
73 -318 307 -6 70 -7 131 -3 135 4 4 42 12 84 18 89 12 150 31 234 74 63 31
174 106 195 132 7 8 14 15 16 15 3 0 28 -19 57 -43z m-113 -893 c63 -4 164 -1
224 5 60 6 111 10 112 8 1 -1 -56 -97 -127 -212 -72 -116 -134 -216 -138 -224
-5 -9 -48 53 -131 190 -68 112 -131 215 -139 228 l-15 24 49 -7 c28 -3 102 -9
165 -12z"/>
</g>
</svg>
